<svg width="19" height="19" viewBox="0 0 19 19" fill="none" xmlns="http://www.w3.org/2000/svg">
<g clip-path="url(#clip0_47_9)">
<path d="M9.67414 0.599406C9.67414 0.273131 9.86826 0 10.1833 0C14.1198 0 17.3116 3.62608 17.3116 8.09813C17.3116 8.4235 17.0698 8.67656 16.7834 8.67656H9.67414V0.599406ZM1.01831 9.83344C1.01831 5.44816 3.88556 1.81991 7.57701 1.23822C7.89843 1.19267 8.14664 1.45911 8.14664 1.79352V10.4119L13.1269 16.0697C13.3401 16.3119 13.3242 16.7096 13.0792 16.9085C11.8317 17.9171 10.3042 18.51 8.65581 18.51C4.43927 18.51 1.01831 14.6272 1.01831 9.83344ZM17.7699 10.4119C18.0627 10.4119 18.2982 10.6939 18.26 11.0265C18.0149 13.0474 17.1557 14.8442 15.9083 16.1709C15.7173 16.3445 15.4182 16.3589 15.2336 16.1493L10.1833 10.4119H17.7699Z" fill="white"/>
</g>
<defs>
<clipPath id="clip0_47_9">
<rect width="18.33" height="18.51" fill="white"/>
</clipPath>
</defs>
</svg>
