<svg width="45" height="47" viewBox="0 0 45 47" fill="none" xmlns="http://www.w3.org/2000/svg">
<path d="M22.5 47C10.0723 47 0 36.4801 0 23.5C0 10.5199 10.0723 0 22.5 0C34.9277 0 45 10.5199 45 23.5C45 36.4801 34.9277 47 22.5 47ZM20.3906 23.5C20.3906 24.2344 20.7422 24.9229 21.3311 25.2533L29.7686 31.1283C30.7354 31.8811 32.0449 31.6057 32.6162 30.5959C33.3369 29.5861 33.0732 28.2184 32.1064 27.5391L24.6094 22.325V11.0156C24.6094 9.79473 23.6689 8.8125 22.4209 8.8125C21.3311 8.8125 20.3115 9.79473 20.3115 11.0156L20.3906 23.5Z" fill="#FB2E2E"/>
</svg>
