<svg width="19" height="19" viewBox="0 0 19 19" fill="none" xmlns="http://www.w3.org/2000/svg">
<g clip-path="url(#clip0_47_7)">
<path d="M2.7495 3.47061C2.7495 2.19263 3.57149 1.15686 4.5825 1.15686H16.497C17.508 1.15686 18.33 2.19263 18.33 3.47061V11.5687C18.33 12.8449 17.508 13.8825 16.497 13.8825H4.5825C3.57149 13.8825 2.7495 12.8449 2.7495 11.5687V3.47061ZM4.5825 11.5687H6.4155C6.4155 10.2926 5.59351 9.25499 4.5825 9.25499V11.5687ZM4.5825 3.47061V5.78436C5.59351 5.78436 6.4155 4.74679 6.4155 3.47061H4.5825ZM16.497 9.25499C15.486 9.25499 14.664 10.2926 14.664 11.5687H16.497V9.25499ZM14.664 3.47061C14.664 4.74679 15.486 5.78436 16.497 5.78436V3.47061H14.664ZM10.5398 4.62749C9.27383 4.62749 8.2485 5.92174 8.2485 7.51967C8.2485 9.11761 9.27383 10.4119 10.5398 10.4119C11.8057 10.4119 12.831 9.11761 12.831 7.51967C12.831 5.92174 11.8057 4.62749 10.5398 4.62749ZM1.37475 13.0148C1.37475 14.4537 2.29812 15.6178 3.43687 15.6178H14.8931C15.274 15.6178 15.5805 16.0046 15.5805 16.4855C15.5805 16.9663 15.274 17.3531 14.8931 17.3531H3.43687C1.53886 17.3531 0 15.4117 0 13.0148V4.33827C0 3.85744 0.307887 3.47061 0.687375 3.47061C1.06686 3.47061 1.37475 3.85744 1.37475 4.33827V13.0148Z" fill="white"/>
</g>
<defs>
<clipPath id="clip0_47_7">
<rect width="18.33" height="18.51" fill="white"/>
</clipPath>
</defs>
</svg>
