<svg width="19" height="19" viewBox="0 0 19 19" fill="none" xmlns="http://www.w3.org/2000/svg">
<g clip-path="url(#clip0_42_120)">
<path d="M17.3117 0C16.7494 0 16.2933 0.518063 16.2933 1.12434V17.3531C16.2933 17.993 16.7484 18.51 17.3117 18.51C17.8749 18.51 18.33 17.9919 18.33 17.3857V1.12434C18.33 0.518063 17.8749 0 17.3117 0ZM5.09167 10.4119C4.5284 10.4119 4.07333 10.9289 4.07333 11.5362V17.3206C4.07333 17.993 4.5284 18.51 5.09167 18.51C5.65493 18.51 6.11 17.9919 6.11 17.3857V11.5362C6.11 10.9289 5.65493 10.4119 5.09167 10.4119ZM1.01833 13.8825C0.456022 13.8825 0 14.3995 0 15.0068V17.3206C0 17.993 0.456022 18.51 0.989693 18.51C1.52336 18.51 2.03667 17.993 2.03667 17.3531V15.0068C2.03667 14.3995 1.58064 13.8825 1.01833 13.8825ZM13.2383 3.47062C12.676 3.47062 12.22 3.98869 12.22 4.59496V17.3531C12.22 17.993 12.6751 18.51 13.2383 18.51C13.8016 18.51 14.2567 17.9919 14.2567 17.3857V4.59496C14.2567 3.9876 13.8016 3.47062 13.2383 3.47062ZM9.165 6.94125C8.60173 6.94125 8.14667 7.45823 8.14667 8.06559V17.3206C8.14667 17.993 8.60173 18.51 9.165 18.51C9.72827 18.51 10.1833 17.9919 10.1833 17.3857V8.06559C10.1833 7.45823 9.72827 6.94125 9.165 6.94125Z" fill="white"/>
</g>
<defs>
<clipPath id="clip0_42_120">
<rect width="18.33" height="18.51" fill="white"/>
</clipPath>
</defs>
</svg>
